<?xml version="1.0" standalone="no"?>
<!DOCTYPE svg PUBLIC "-//W3C//DTD SVG 20010904//EN"
 "http://www.w3.org/TR/2001/REC-SVG-20010904/DTD/svg10.dtd">
<svg version="1.0" xmlns="http://www.w3.org/2000/svg"
 width="512.000000pt" height="512.000000pt" viewBox="0 0 512.000000 512.000000"
 preserveAspectRatio="xMidYMid meet">

<g transform="translate(0.000000,512.000000) scale(0.100000,-0.100000)"
fill="#000000" stroke="none">
<path d="M1980 4750 l0 -370 85 0 85 0 0 370 0 370 -85 0 -85 0 0 -370z"/>
<path d="M1406 4660 c-38 -16 -71 -32 -74 -34 -5 -6 135 -355 149 -370 8 -9
149 44 149 56 0 8 -137 343 -149 365 -4 8 -25 4 -75 -17z"/>
<path d="M2576 4506 c-42 -101 -76 -188 -76 -193 0 -11 139 -68 146 -60 7 6
154 359 154 368 0 4 -17 14 -37 22 -21 9 -54 22 -74 31 l-37 15 -76 -183z"/>
<path d="M600 4515 l-55 -55 260 -260 c143 -143 265 -260 270 -260 6 0 34 24
63 53 l52 52 -263 263 c-144 144 -265 262 -267 262 -3 0 -30 -25 -60 -55z"/>
<path d="M3202 4307 l-262 -262 58 -58 57 -57 263 263 262 262 -58 58 -57 57
-263 -263z"/>
<path d="M1870 4194 c-365 -66 -679 -301 -844 -632 -79 -157 -122 -363 -113
-547 8 -175 34 -283 109 -447 l39 -87 -26 -41 c-33 -52 -84 -179 -99 -245
l-11 -50 -110 -2 c-134 -2 -236 -26 -353 -83 -335 -165 -519 -540 -443 -904
65 -318 322 -576 636 -641 58 -12 148 -15 409 -15 l335 0 6 -37 c34 -235 169
-393 382 -448 85 -22 1461 -22 1546 0 213 55 348 213 382 448 l6 37 335 0
c368 0 423 6 554 60 105 43 198 109 288 205 398 420 236 1113 -311 1326 -40
15 -72 31 -72 36 0 4 7 53 14 109 50 365 -72 738 -329 1008 -197 207 -445 335
-729 377 -83 12 -339 8 -372 -5 -13 -6 -30 14 -75 80 -174 263 -463 448 -776
499 -112 18 -276 18 -378 -1z m370 -165 c121 -22 284 -90 387 -160 71 -49 194
-171 242 -239 l42 -60 -28 -12 c-199 -83 -331 -168 -452 -291 -120 -123 -197
-233 -256 -367 -16 -36 -30 -66 -31 -68 -1 -1 -41 9 -90 24 -79 24 -105 27
-234 27 -119 1 -159 -3 -225 -21 -136 -38 -276 -112 -377 -202 l-45 -39 -27
67 c-99 253 -92 538 19 779 190 411 631 642 1075 562z m1180 -569 c469 -56
839 -394 935 -855 20 -97 23 -283 6 -381 l-12 -72 -92 -7 c-362 -28 -647 -249
-751 -582 -14 -45 -28 -119 -32 -163 l-7 -80 80 0 c89 0 93 3 93 75 0 17 7 58
15 90 45 177 175 338 339 421 189 97 401 98 596 3 69 -34 101 -58 170 -128 86
-87 125 -149 165 -266 26 -74 32 -262 11 -345 -55 -222 -225 -405 -440 -477
l-81 -27 -362 -4 -361 -3 -33 63 c-87 166 -274 276 -454 266 l-65 -3 -53 70
c-268 353 -786 353 -1054 0 l-53 -70 -65 3 c-180 10 -367 -100 -454 -266 l-33
-63 -361 3 -362 4 -81 27 c-215 72 -385 255 -440 477 -21 83 -15 271 11 345
40 117 79 179 165 266 69 70 101 94 170 128 218 106 455 92 661 -40 25 -16 48
-29 51 -29 3 0 27 28 53 61 l49 62 -30 24 c-16 13 -73 45 -126 71 -78 38 -97
51 -98 69 0 34 53 176 91 239 48 81 171 203 254 252 230 135 527 137 755 5 83
-49 218 -182 260 -255 17 -32 36 -58 41 -58 9 0 128 57 138 66 7 6 -62 119
-106 173 -48 59 -137 141 -195 181 l-36 24 20 51 c26 69 91 178 149 251 171
217 425 362 704 403 85 12 158 13 255 1z m-720 -2327 c139 -38 263 -151 322
-294 18 -42 25 -50 42 -46 129 30 156 34 205 26 110 -17 202 -87 249 -187 38
-80 38 -193 1 -272 -31 -66 -90 -127 -155 -160 l-49 -25 -755 0 -755 0 -49 25
c-65 33 -124 94 -155 160 -37 79 -37 192 1 272 47 100 139 170 249 187 49 8
76 4 205 -26 17 -4 24 4 42 46 101 243 347 364 602 294z"/>
<path d="M481 3763 c-7 -16 -21 -49 -31 -74 l-19 -47 185 -76 c101 -42 188
-76 192 -76 12 0 65 141 56 149 -10 9 -352 151 -363 151 -5 0 -13 -12 -20 -27z"/>
<path d="M0 3055 l0 -85 370 0 370 0 0 85 0 85 -370 0 -370 0 0 -85z"/>
<path d="M616 2545 c-98 -41 -180 -76 -182 -77 -2 -3 54 -139 61 -146 4 -4
338 131 364 147 11 7 9 22 -14 80 -16 39 -33 71 -39 71 -6 0 -92 -34 -190 -75z"/>
</g>
</svg>
